<svg width="103" height="98" viewBox="0 0 103 98" fill="none" xmlns="http://www.w3.org/2000/svg">
<g filter="url(#filter0_d)">
<ellipse cx="51.5" cy="46" rx="47.5" ry="44" fill="url(#paint0_linear)"/>
<path d="M98.5 46C98.5 69.989 77.4941 89.5 51.5 89.5C25.5059 89.5 4.5 69.989 4.5 46C4.5 22.011 25.5059 2.5 51.5 2.5C77.4941 2.5 98.5 22.011 98.5 46Z" stroke="black"/>
</g>
<path d="M23 46.376V38.84L30.152 37.64V19.4H80.024V36.776L42.68 43.064V53H30.152V45.176L23 46.376ZM42.68 35.528L67.496 31.352V26.216H42.68V35.528Z" fill="black"/>
<path d="M22 62.6V61.17H26.125V67H23.375V62.6H22ZM23.375 60.4V58.86H26.125V60.4H23.375ZM27.1133 62.6V61.17H28.4883V59.3H31.2383V61.17H33.9333V62.6H31.2383V65.24L31.8983 65.57H36.1333V67H31.1833L28.4883 65.68V62.6H27.1133ZM35.9004 62.6V61.17H47.0104V63.37L44.2604 63.095V62.6H40.0254V65.57H44.2604V65.075L47.0104 64.8V67H37.2754V62.6H35.9004ZM48.8787 67V61.17H58.8337V67H48.8787ZM51.6287 65.57H56.0837V62.6H51.6287V65.57ZM60.8132 67V61.83L67.9082 60.95V59.3H70.6582V67H68.6892L68.1282 66.45L67.5782 67H60.8132ZM63.5632 65.57H67.9082V62.325L63.5632 62.875V65.57ZM71.6504 62.6V61.17H82.7604V64.085L75.7754 65.075V65.57H80.0104V65.075L82.7604 64.8V67H73.0254V62.6H71.6504ZM75.7754 63.656L80.0104 63.095V62.6H75.7754V63.656Z" fill="black"/>
<g filter="url(#filter1_d)">
<ellipse cx="70" cy="7" rx="9" ry="7" fill="#C4C4C4"/>
<path d="M78.5 7C78.5 10.4802 74.8186 13.5 70 13.5C65.1814 13.5 61.5 10.4802 61.5 7C61.5 3.51981 65.1814 0.5 70 0.5C74.8186 0.5 78.5 3.51981 78.5 7Z" stroke="black"/>
</g>
<path d="M66.4 9V8.29H67.23V6.82L66.4 7.22V6.34L68.535 5.315V9H66.4ZM69.4371 9V7.785L70.7421 7.985V8.29H73.3221V8.035L72.3421 7.605H71.1971V6.895H72.3421L73.3221 6.465V6.21H70.7421V6.515L69.4371 6.715V5.5H74.6271V6.875L73.4821 7.25L74.6271 7.625V9H69.4371Z" fill="black"/>
<g filter="url(#filter2_d)">
<path d="M11 72H92V83H11V72Z" fill="#22FFAF"/>
<path d="M11.1 72.1H91.9V82.9H11.1V72.1Z" stroke="black" stroke-width="0.2"/>
</g>
<path d="M30.72 74.807L30 73.997H35.103L35.823 74.807H33.654L33.672 80.261L32.412 80V74.807H30.72ZM37.3121 78.209L39.3551 76.814C38.9231 76.538 38.5541 76.436 38.2481 76.508C37.9481 76.58 37.7171 76.769 37.5551 77.075C37.3931 77.375 37.3121 77.753 37.3121 78.209ZM37.5191 79.073C37.6871 79.277 37.8761 79.403 38.0861 79.451C38.2961 79.499 38.5151 79.472 38.7431 79.37C38.9771 79.262 39.1721 79.157 39.3281 79.055C39.4841 78.947 39.6671 78.806 39.8771 78.632L40.0571 78.812C40.1711 78.938 40.2851 79.064 40.3991 79.19L40.5791 79.37C40.0571 79.754 39.6161 80.009 39.2561 80.135C38.8961 80.267 38.5391 80.267 38.1851 80.135C37.6691 79.937 37.1831 79.589 36.7271 79.091C36.4571 78.791 36.3011 78.437 36.2591 78.029C36.2171 77.615 36.2681 77.231 36.4121 76.877C36.5621 76.523 36.7901 76.223 37.0961 75.977C37.4081 75.725 37.7471 75.599 38.1131 75.599C38.3531 75.599 38.7071 75.755 39.1751 76.067C39.6491 76.373 40.0421 76.673 40.3541 76.967C40.3481 76.985 40.1081 77.171 39.6341 77.525C39.1661 77.873 38.6951 78.218 38.2211 78.56L37.5191 79.073ZM45.0948 76.31L44.7708 76.778C44.6808 76.748 44.5758 76.712 44.4558 76.67C44.3358 76.622 44.2428 76.589 44.1768 76.571C44.1108 76.547 44.0388 76.523 43.9608 76.499C43.8828 76.475 43.8168 76.46 43.7628 76.454C43.7148 76.442 43.6698 76.436 43.6278 76.436C43.2378 76.454 42.9078 76.706 42.6378 77.192C42.3798 77.66 42.2808 78.131 42.3408 78.605C42.3948 79.079 42.6048 79.343 42.9708 79.397C43.3968 79.457 43.9668 79.211 44.6808 78.659L44.8518 78.857C44.9718 78.989 45.0888 79.124 45.2028 79.262L45.3738 79.46C45.1398 79.634 44.9328 79.775 44.7528 79.883C44.5788 79.991 44.3988 80.078 44.2128 80.144C44.0268 80.216 43.8438 80.249 43.6638 80.243C43.4898 80.243 43.3098 80.207 43.1238 80.135C42.6078 79.937 42.1218 79.589 41.6658 79.091C41.3958 78.791 41.2458 78.437 41.2158 78.029C41.1918 77.615 41.2638 77.231 41.4318 76.877C41.6058 76.523 41.8608 76.223 42.1968 75.977C42.5328 75.725 42.8988 75.599 43.2948 75.599C43.4808 75.599 44.0808 75.836 45.0948 76.31ZM47.3102 73.862V76.364C47.8682 75.83 48.3512 75.578 48.7592 75.608C48.9512 75.62 49.2872 75.86 49.7672 76.328C50.2532 76.79 50.5112 77.105 50.5412 77.273C50.5652 77.429 50.5772 78.425 50.5772 80.261L49.4612 80.009C49.4972 77.951 49.4822 76.862 49.4162 76.742C49.3022 76.532 49.1162 76.472 48.8582 76.562C48.6062 76.646 48.3422 76.802 48.0662 77.03C47.7962 77.252 47.5442 77.504 47.3102 77.786V80.261L46.1852 80.009V73.61L47.3102 73.862ZM52.8333 79.541C53.3073 79.781 53.8803 79.664 54.5523 79.19V76.661C54.3783 76.559 54.1353 76.49 53.8233 76.454C53.5773 76.43 53.3373 76.556 53.1033 76.832C52.8693 77.102 52.6923 77.417 52.5723 77.777C52.4523 78.137 52.4073 78.494 52.4373 78.848C52.4733 79.196 52.6053 79.427 52.8333 79.541ZM54.5523 73.61L55.6773 73.862C55.7133 77.912 55.7133 79.955 55.6773 79.991C55.6473 79.997 55.4913 80.03 55.2093 80.09C54.9333 80.156 54.7563 80.195 54.6783 80.207C54.6003 80.219 54.4383 80.237 54.1923 80.261C53.9523 80.285 53.7603 80.285 53.6163 80.261C53.4783 80.237 53.3043 80.195 53.0943 80.135C52.8843 80.081 52.6833 80 52.4913 79.892C52.1493 79.706 51.8853 79.478 51.6993 79.208C51.5133 78.938 51.4143 78.662 51.4023 78.38C51.3903 78.098 51.4233 77.813 51.5013 77.525C51.5793 77.231 51.7023 76.964 51.8703 76.724C52.0443 76.478 52.2273 76.262 52.4193 76.076C52.6173 75.89 52.8243 75.758 53.0403 75.68C53.2563 75.596 53.4483 75.581 53.6163 75.635C53.6943 75.659 53.7753 75.695 53.8593 75.743C53.9493 75.785 54.0213 75.824 54.0753 75.86C54.1353 75.896 54.2163 75.95 54.3183 76.022C54.4263 76.094 54.5043 76.145 54.5523 76.175V73.61ZM59.6995 76.607C59.3035 76.337 58.8925 76.379 58.4665 76.733C58.1125 77.033 57.8755 77.432 57.7555 77.93C57.6235 78.5 57.7255 78.929 58.0615 79.217C58.1035 79.253 58.1485 79.286 58.1965 79.316C58.4365 79.448 58.6825 79.478 58.9345 79.406C59.1925 79.334 59.4145 79.175 59.6005 78.929C59.7925 78.683 59.9425 78.422 60.0505 78.146C60.1585 77.864 60.1855 77.579 60.1315 77.291C60.0775 76.997 59.9335 76.769 59.6995 76.607ZM60.5995 76.679C60.7735 76.835 60.9085 77.024 61.0045 77.246C61.1005 77.462 61.1545 77.684 61.1665 77.912C61.1845 78.14 61.1635 78.371 61.1035 78.605C61.0495 78.839 60.9655 79.058 60.8515 79.262C60.7375 79.466 60.5935 79.649 60.4195 79.811C60.2515 79.967 60.0655 80.084 59.8615 80.162C59.6575 80.246 59.4295 80.279 59.1775 80.261C58.9315 80.243 58.6795 80.165 58.4215 80.027C58.0855 79.847 57.7555 79.619 57.4315 79.343C57.1735 79.121 56.9815 78.872 56.8555 78.596C56.7295 78.314 56.6695 78.041 56.6755 77.777C56.6875 77.513 56.7385 77.249 56.8285 76.985C56.9245 76.721 57.0595 76.493 57.2335 76.301C57.4135 76.109 57.6085 75.947 57.8185 75.815C58.0285 75.677 58.2535 75.605 58.4935 75.599C58.7395 75.593 58.9765 75.644 59.2045 75.752C59.7865 76.058 60.2515 76.367 60.5995 76.679ZM65.0081 76.607C64.6121 76.337 64.2011 76.379 63.7751 76.733C63.4211 77.033 63.1841 77.432 63.0641 77.93C62.9321 78.5 63.0341 78.929 63.3701 79.217C63.4121 79.253 63.4571 79.286 63.5051 79.316C63.7451 79.448 63.9911 79.478 64.2431 79.406C64.5011 79.334 64.7231 79.175 64.9091 78.929C65.1011 78.683 65.2511 78.422 65.3591 78.146C65.4671 77.864 65.4941 77.579 65.4401 77.291C65.3861 76.997 65.2421 76.769 65.0081 76.607ZM65.9081 76.679C66.0821 76.835 66.2171 77.024 66.3131 77.246C66.4091 77.462 66.4631 77.684 66.4751 77.912C66.4931 78.14 66.4721 78.371 66.4121 78.605C66.3581 78.839 66.2741 79.058 66.1601 79.262C66.0461 79.466 65.9021 79.649 65.7281 79.811C65.5601 79.967 65.3741 80.084 65.1701 80.162C64.9661 80.246 64.7381 80.279 64.4861 80.261C64.2401 80.243 63.9881 80.165 63.7301 80.027C63.3941 79.847 63.0641 79.619 62.7401 79.343C62.4821 79.121 62.2901 78.872 62.1641 78.596C62.0381 78.314 61.9781 78.041 61.9841 77.777C61.9961 77.513 62.0471 77.249 62.1371 76.985C62.2331 76.721 62.3681 76.493 62.5421 76.301C62.7221 76.109 62.9171 75.947 63.1271 75.815C63.3371 75.677 63.5621 75.605 63.8021 75.599C64.0481 75.593 64.2851 75.644 64.5131 75.752C65.0951 76.058 65.5601 76.367 65.9081 76.679ZM68.5797 75.95V76.193C69.0057 75.779 69.3987 75.584 69.7587 75.608C69.8727 75.614 70.0587 75.722 70.3167 75.932C70.5747 76.136 70.8207 76.364 71.0547 76.616C71.6187 75.914 72.1407 75.578 72.6207 75.608C72.8127 75.62 73.1487 75.86 73.6287 76.328C74.1147 76.79 74.3727 77.105 74.4027 77.273C74.4267 77.429 74.4387 78.425 74.4387 80.261L73.3227 80.009C73.3587 77.945 73.3437 76.853 73.2777 76.733C73.2057 76.601 73.1007 76.532 72.9627 76.526C72.8307 76.52 72.6837 76.565 72.5217 76.661C72.3657 76.757 72.2067 76.88 72.0447 77.03C71.8827 77.174 71.7207 77.339 71.5587 77.525C71.5707 77.855 71.5767 78.767 71.5767 80.261L70.4607 80.009C70.4967 77.945 70.4817 76.853 70.4157 76.733C70.3257 76.601 70.2117 76.532 70.0737 76.526C69.9417 76.52 69.7857 76.577 69.6057 76.697C69.4257 76.811 69.2487 76.952 69.0747 77.12C68.9067 77.282 68.7417 77.465 68.5797 77.669V80.261L67.4547 80.009V75.698L68.5797 75.95Z" fill="black"/>
<defs>
<filter id="filter0_d" x="0" y="2" width="103" height="96" filterUnits="userSpaceOnUse" color-interpolation-filters="sRGB">
<feFlood flood-opacity="0" result="BackgroundImageFix"/>
<feColorMatrix in="SourceAlpha" type="matrix" values="0 0 0 0 0 0 0 0 0 0 0 0 0 0 0 0 0 0 127 0" result="hardAlpha"/>
<feOffset dy="4"/>
<feGaussianBlur stdDeviation="2"/>
<feComposite in2="hardAlpha" operator="out"/>
<feColorMatrix type="matrix" values="0 0 0 0 0 0 0 0 0 0 0 0 0 0 0 0 0 0 0.25 0"/>
<feBlend mode="normal" in2="BackgroundImageFix" result="effect1_dropShadow"/>
<feBlend mode="normal" in="SourceGraphic" in2="effect1_dropShadow" result="shape"/>
</filter>
<filter id="filter1_d" x="57" y="0" width="26" height="22" filterUnits="userSpaceOnUse" color-interpolation-filters="sRGB">
<feFlood flood-opacity="0" result="BackgroundImageFix"/>
<feColorMatrix in="SourceAlpha" type="matrix" values="0 0 0 0 0 0 0 0 0 0 0 0 0 0 0 0 0 0 127 0" result="hardAlpha"/>
<feOffset dy="4"/>
<feGaussianBlur stdDeviation="2"/>
<feComposite in2="hardAlpha" operator="out"/>
<feColorMatrix type="matrix" values="0 0 0 0 0 0 0 0 0 0 0 0 0 0 0 0 0 0 0.25 0"/>
<feBlend mode="normal" in2="BackgroundImageFix" result="effect1_dropShadow"/>
<feBlend mode="normal" in="SourceGraphic" in2="effect1_dropShadow" result="shape"/>
</filter>
<filter id="filter2_d" x="7" y="72" width="89" height="19" filterUnits="userSpaceOnUse" color-interpolation-filters="sRGB">
<feFlood flood-opacity="0" result="BackgroundImageFix"/>
<feColorMatrix in="SourceAlpha" type="matrix" values="0 0 0 0 0 0 0 0 0 0 0 0 0 0 0 0 0 0 127 0" result="hardAlpha"/>
<feOffset dy="4"/>
<feGaussianBlur stdDeviation="2"/>
<feComposite in2="hardAlpha" operator="out"/>
<feColorMatrix type="matrix" values="0 0 0 0 0 0 0 0 0 0 0 0 0 0 0 0 0 0 0.25 0"/>
<feBlend mode="normal" in2="BackgroundImageFix" result="effect1_dropShadow"/>
<feBlend mode="normal" in="SourceGraphic" in2="effect1_dropShadow" result="shape"/>
</filter>
<linearGradient id="paint0_linear" x1="51.5" y1="2" x2="51.5" y2="90" gradientUnits="userSpaceOnUse">
<stop offset="0.182292" stop-color="#3C8AFF"/>
<stop offset="0.494792" stop-color="#4E3FF9"/>
<stop offset="0.8125" stop-color="#5096FF"/>
<stop offset="1" stop-color="#5215FF"/>
</linearGradient>
</defs>
</svg>
